<?xml version="1.0" standalone="no"?>
<!DOCTYPE svg PUBLIC "-//W3C//DTD SVG 20010904//EN"
 "http://www.w3.org/TR/2001/REC-SVG-20010904/DTD/svg10.dtd">
<svg version="1.0" xmlns="http://www.w3.org/2000/svg"
 width="420.000000pt" height="420.000000pt" viewBox="0 0 420.000000 420.000000"
 preserveAspectRatio="xMidYMid meet">
<metadata>
Created by potrace 1.14, written by Peter Selinger 2001-2017
</metadata>
<g transform="translate(0.000000,420.000000) scale(0.100000,-0.100000)"
fill="#000000" stroke="none">
<path d="M1830 4185 c-831 -114 -1508 -692 -1745 -1490 -41 -138 -49 -177 -76
-370 -15 -109 -3 -458 20 -585 164 -919 903 -1617 1831 -1729 112 -14 391 -11
513 5 911 119 1633 813 1799 1727 32 177 32 537 0 714 -54 300 -163 568 -330
816 -41 62 -77 114 -81 117 -3 3 -30 34 -60 70 -328 395 -847 672 -1366 729
-118 13 -396 10 -505 -4z"/>
</g>
</svg>
